<?xml version="1.0" encoding="UTF-8" standalone="no"?>
<svg
   xmlns:dc="http://purl.org/dc/elements/1.1/"
   xmlns:cc="http://creativecommons.org/ns#"
   xmlns:rdf="http://www.w3.org/1999/02/22-rdf-syntax-ns#"
   xmlns:svg="http://www.w3.org/2000/svg"
   xmlns="http://www.w3.org/2000/svg"
   xmlns:sodipodi="http://sodipodi.sourceforge.net/DTD/sodipodi-0.dtd"
   xmlns:inkscape="http://www.inkscape.org/namespaces/inkscape"
   width="398.18781"
   height="47.728199"
   viewBox="0 0 398.18778 47.728198"
   version="1.1"
   id="svg2292"
   sodipodi:docname="logo_small.svg"
   inkscape:version="1.0.1 (c497b03c, 2020-09-10)">
  <metadata
     id="metadata2296">
    <rdf:RDF>
      <cc:Work
         rdf:about="">
        <dc:format>image/svg+xml</dc:format>
        <dc:type
           rdf:resource="http://purl.org/dc/dcmitype/StillImage" />
        <dc:title></dc:title>
      </cc:Work>
    </rdf:RDF>
  </metadata>
  <sodipodi:namedview
     pagecolor="#ffffff"
     bordercolor="#666666"
     borderopacity="1"
     objecttolerance="10"
     gridtolerance="10"
     guidetolerance="10"
     inkscape:pageopacity="0"
     inkscape:pageshadow="2"
     inkscape:window-width="1920"
     inkscape:window-height="1027"
     id="namedview2294"
     showgrid="false"
     inkscape:zoom="1.0636576"
     inkscape:cx="192.85777"
     inkscape:cy="46.687563"
     inkscape:window-x="2872"
     inkscape:window-y="590"
     inkscape:window-maximized="1"
     inkscape:current-layer="svg2292" />
  <defs
     id="defs2275">
    <linearGradient
       id="linear-gradient"
       y1="2213.0669"
       x2="2221.2595"
       y2="2213.2083"
       gradientUnits="userSpaceOnUse"
       gradientTransform="scale(0.91770835,1.0896708)"
       x1="2209.4858">
      <stop
         offset="0"
         stop-color="#ff3158"
         id="stop2265" />
      <stop
         offset="1"
         stop-color="#ff1249"
         id="stop2267" />
    </linearGradient>
    <linearGradient
       id="linear-gradient-2"
       y1="2847.989"
       x2="1728.0228"
       y2="2848.1963"
       gradientUnits="userSpaceOnUse"
       gradientTransform="scale(1.1815539,0.84634313)"
       x1="1712.072">
      <stop
         offset="0"
         stop-color="#ff4e70"
         id="stop2270" />
      <stop
         offset="1"
         stop-color="#ff3158"
         id="stop2272" />
    </linearGradient>
    <clipPath
       clipPathUnits="userSpaceOnUse"
       id="clipPath2478">
      <path
         d="M 0,333.577 H 1500 V 0 H 0 Z"
         id="path2476" />
    </clipPath>
    <clipPath
       clipPathUnits="userSpaceOnUse"
       id="clipPath44">
      <path
         d="M 0,333.577 H 1500 V 0 H 0 Z"
         id="path42" />
    </clipPath>
  </defs>
  <g
     id="g40"
     clip-path="url(#clipPath44)"
     transform="matrix(0.27613576,0,0,-0.24713866,-8.0078542,72.768496)">
    <g
       id="g46"
       transform="translate(110.0667,143.5562)">
      <path
         d="m 0,0 c -3.061,-3.062 -6.786,-4.592 -11.189,-4.592 h -29.147 v 31.341 h 29.147 c 3.835,0 7.149,-1.152 9.958,-3.488 C -0.805,22.93 -0.395,22.551 0,22.157 2.762,19.395 4.277,16.144 4.545,12.42 4.577,12.009 4.592,11.599 4.592,11.173 4.592,6.786 3.061,3.062 0,0 m -40.336,86.448 h 27.759 c 4.26,0 7.953,-1.562 11.078,-4.687 3.124,-3.124 4.687,-6.817 4.687,-11.078 0,-3.866 -1.294,-7.275 -3.866,-10.195 -0.253,-0.299 -0.537,-0.599 -0.821,-0.883 -3.125,-3.141 -6.818,-4.703 -11.078,-4.703 H -40.336 Z M 48.779,14.029 c -0.158,0.742 -0.347,1.484 -0.568,2.241 -0.852,3.014 -1.957,5.918 -3.362,8.68 -0.22,0.473 -0.473,0.947 -0.726,1.404 -1.735,3.204 -3.834,6.123 -6.28,8.79 -2.478,2.651 -5.161,4.924 -8.096,6.786 2.43,2.209 4.561,4.64 6.36,7.259 1.578,2.257 2.919,4.656 4.024,7.212 0.537,1.247 1.026,2.509 1.436,3.788 1.452,4.355 2.162,8.853 2.162,13.492 0,5.192 -0.899,10.242 -2.699,15.166 -1.799,4.923 -4.355,9.389 -7.685,13.382 -1.862,2.257 -4.103,4.324 -6.691,6.186 -2.604,1.862 -5.397,3.504 -8.38,4.892 -2.998,1.405 -6.06,2.462 -9.184,3.204 C 5.949,117.237 2.92,117.6 0,117.6 H -81.067 V -37.338 H 6.786 c 5.997,0 11.583,1.168 16.775,3.488 5.192,2.335 9.753,5.46 13.682,9.39 3.914,3.929 6.975,8.521 9.184,13.776 2.194,5.255 3.283,10.81 3.283,16.681 0,2.604 -0.3,5.286 -0.931,8.032"
         style="fill:#00aeef;fill-opacity:1;fill-rule:nonzero;stroke:none"
         id="path48" />
    </g>
    <g
       id="g50"
       transform="translate(566.4991,162.5249)">
      <path
         d="m 0,0 c -0.521,3.519 -1.531,6.817 -2.982,9.879 -1.878,4.119 -4.403,7.669 -7.591,10.652 -3.204,2.998 -6.818,5.586 -10.889,7.78 -4.056,2.194 -8.38,4.056 -12.972,5.586 -4.592,1.531 -9.153,2.888 -13.682,4.088 -4.655,1.199 -9.122,2.225 -13.382,3.093 -4.261,0.852 -8.175,1.752 -11.773,2.683 -3.598,0.931 -6.628,1.956 -9.09,3.093 -2.462,1.12 -4.15,2.43 -5.081,3.882 -0.805,1.325 -1.199,2.935 -1.199,4.797 0,2.509 0.599,4.545 1.798,6.076 1.2,1.531 2.715,2.683 4.593,3.487 1.862,0.789 3.882,1.294 6.075,1.5 2.21,0.189 4.308,0.299 6.297,0.299 8.38,0 16.207,-1.199 23.466,-3.598 7.244,-2.398 14.74,-5.46 22.457,-9.184 3.203,5.586 6.359,11.094 9.484,16.507 3.125,5.413 6.36,10.92 9.689,16.554 -9.058,5.618 -18.574,9.658 -28.563,12.136 -9.974,2.477 -20.089,3.724 -30.347,3.724 -6.249,0 -12.514,-0.474 -18.763,-1.405 -6.265,-0.931 -12.215,-2.54 -17.865,-4.797 -5.665,-2.273 -10.825,-5.397 -15.48,-9.405 -4.656,-3.993 -8.459,-9.059 -11.379,-15.198 -1.467,-3.061 -2.572,-6.296 -3.298,-9.705 -0.726,-3.393 -1.104,-6.754 -1.104,-10.084 0,-9.61 1.704,-17.312 5.097,-23.103 3.393,-5.808 7.953,-10.431 13.682,-13.903 2.793,-1.736 5.823,-3.235 9.074,-4.498 3.267,-1.262 6.691,-2.43 10.289,-3.503 3.456,-1.058 7.054,-1.989 10.779,-2.793 3.724,-0.805 7.527,-1.673 11.378,-2.604 2.935,-0.663 5.87,-1.263 8.79,-1.799 2.935,-0.537 5.791,-1.326 8.584,-2.399 1.2,-0.395 2.462,-0.931 3.804,-1.61 1.325,-0.662 2.587,-1.42 3.787,-2.288 1.199,-0.868 2.194,-1.862 2.998,-2.998 0.789,-1.137 1.2,-2.43 1.2,-3.898 0,-3.077 -0.71,-5.445 -2.099,-7.102 -1.405,-1.672 -3.172,-2.903 -5.287,-3.708 -2.13,-0.789 -4.497,-1.294 -7.101,-1.499 -2.588,-0.19 -5.019,-0.3 -7.275,-0.3 -8.127,0 -15.813,0.962 -23.072,2.904 -7.259,1.925 -14.471,4.686 -21.667,8.285 -1.594,0.931 -3.251,1.72 -4.987,2.398 -0.789,-1.467 -2.193,-3.866 -4.198,-7.196 -1.988,-3.33 -4.119,-6.849 -6.375,-10.557 -1.073,-1.847 -2.131,-3.677 -3.204,-5.46 -1.073,-1.784 -1.988,-3.378 -2.793,-4.766 -0.805,-1.389 -1.468,-2.541 -2.004,-3.472 -0.521,-0.931 -0.789,-1.452 -0.789,-1.594 0,-0.253 0.521,-0.726 1.594,-1.389 1.057,-0.521 1.736,-0.789 2.004,-0.789 9.311,-4.371 19.063,-7.78 29.242,-10.226 10.179,-2.446 20.468,-3.677 30.852,-3.677 8.379,0 16.775,0.773 25.155,2.304 8.395,1.515 15.907,4.182 22.566,7.97 6.66,3.787 12.041,8.932 16.176,15.449 4.118,6.502 6.186,14.818 6.186,24.918 C 0.805,-7.007 0.537,-3.519 0,0"
         style="fill:#00aeef;fill-opacity:1;fill-rule:nonzero;stroke:none"
         id="path52" />
    </g>
    <g
       id="g54"
       transform="translate(583.0692,261.1559)">
      <path
         d="m 0,0 v -35.539 l 2.809,-2.793 h 42.53 v -116.605 h 42.119 v 116.605 h 42.53 l 2.793,2.793 V 0 Z"
         style="fill:#00aeef;fill-opacity:1;fill-rule:nonzero;stroke:none"
         id="path56" />
    </g>
    <g
       id="g58"
       transform="translate(767.5803,163.7243)">
      <path
         d="M 0,0 12.372,40.936 24.555,0 Z M 30.536,97.432 H -5.997 L -63.298,-57.506 h 43.729 l 7.986,21.368 h 47.721 l 7.986,-21.368 h 43.728 z"
         style="fill:#00aeef;fill-opacity:1;fill-rule:nonzero;stroke:none"
         id="path60" />
    </g>
    <g
       id="g62"
       transform="translate(850.4303,261.1559)">
      <path
         d="m 0,0 v -35.539 l 2.793,-2.793 h 42.529 v -116.605 h 42.136 v 116.605 h 42.529 l 2.794,2.793 V 0 Z"
         style="fill:#00aeef;fill-opacity:1;fill-rule:nonzero;stroke:none"
         id="path64" />
    </g>
    <g
       id="g66"
       transform="translate(1084.4457,193.6765)">
      <path
         d="m 0,0 v -37.338 h 27.349 c -3.851,-5.065 -8.617,-8.995 -14.266,-11.788 -5.666,-2.793 -11.615,-4.198 -17.88,-4.198 -5.855,0 -11.268,1.168 -16.27,3.504 -4.987,2.319 -9.343,5.428 -13.067,9.279 -3.74,3.866 -6.628,8.395 -8.695,13.587 -2.068,5.192 -3.093,10.637 -3.093,16.365 0,5.728 1.025,11.141 3.093,16.27 2.067,5.129 4.923,9.627 8.584,13.477 3.662,3.866 7.986,6.959 12.988,9.295 4.987,2.32 10.4,3.488 16.27,3.488 5.587,0 10.873,-1.089 15.876,-3.299 4.987,-2.193 9.547,-5.349 13.666,-9.484 L 58.5,41.725 c -8.112,9.579 -17.659,17.012 -28.642,22.267 -10.984,5.255 -22.599,7.89 -34.845,7.89 -11.457,0 -22.14,-2.178 -32.051,-6.502 -9.91,-4.323 -18.574,-10.241 -25.959,-17.769 -7.386,-7.512 -13.178,-16.27 -17.359,-26.244 -4.198,-9.989 -6.297,-20.578 -6.297,-31.751 0,-11.457 2.067,-22.141 6.186,-32.051 4.119,-9.91 9.847,-18.574 17.17,-25.96 7.322,-7.385 15.938,-13.208 25.865,-17.469 9.91,-4.261 20.657,-6.391 32.24,-6.391 13.319,0 25.96,3.061 37.937,9.184 v -4.387 h 35.35 V 0 Z"
         style="fill:#00aeef;fill-opacity:1;fill-rule:nonzero;stroke:none"
         id="path68" />
    </g>
    <g
       id="g70"
       transform="translate(1305.2845,224.2284)">
      <path
         d="M 0,0 V 36.927 H -123.596 V -118.01 H 0 v 36.738 h -83.261 v 22.157 h 78.464 v 36.943 H -83.261 V 0 Z"
         style="fill:#00aeef;fill-opacity:1;fill-rule:nonzero;stroke:none"
         id="path72" />
    </g>
    <g
       id="g74"
       transform="translate(1429.4648,261.1559)">
      <path
         d="M 0,0 V -83.45 L -53.908,0 h -41.125 v -154.732 h 41.33 v 82.66 L 0,-154.732 H 41.535 V 0 Z"
         style="fill:#00aeef;fill-opacity:1;fill-rule:nonzero;stroke:none"
         id="path76" />
    </g>
    <g
       id="g78"
       transform="translate(184.537,158.5008)">
      <path
         d="M 0,0 V -52.282 H 41.741 V 1.515 C 41.599,1.499 41.441,1.483 41.299,1.483 27.538,0.994 13.761,0.505 0,0"
         style="fill:#8dc63f;fill-opacity:1;fill-rule:nonzero;stroke:none"
         id="path80" />
    </g>
    <g
       id="g82"
       transform="translate(226.2777,203.2398)">
      <path
         d="M 0,0 V 54.936 H 5.523 V 65.983 H -5.523 V 57.916 H -41.741 V 0.3 C -28.563,0.205 -14.992,0.126 -0.963,0.047 -0.631,0.047 -0.316,0.032 0,0"
         style="fill:#8dc63f;fill-opacity:1;fill-rule:nonzero;stroke:none"
         id="path84" />
    </g>
    <g
       id="g86"
       transform="translate(104.9537,64.2096)" />
    <g
       id="g92"
       transform="translate(153.4012,47.9394)" />
    <g
       id="g96"
       transform="translate(184.174,55.262)" />
    <g
       id="g100"
       transform="translate(195.3945,59.0334)" />
    <g
       id="g104"
       transform="translate(230.4439,64.2096)" />
    <g
       id="g108"
       transform="translate(271.3322,49.6596)" />
    <g
       id="g112"
       transform="translate(295.3981,55.4669)" />
    <g
       id="g116"
       transform="translate(339.7585,50.5119)" />
    <g
       id="g120"
       transform="translate(358.5061,46.5192)" />
    <g
       id="g126"
       transform="translate(381.2309,39.9069)" />
    <g
       id="g130"
       transform="translate(420.9199,51.3481)" />
    <g
       id="g134"
       transform="translate(446.6429,46.5192)" />
    <g
       id="g138"
       transform="translate(457.9577,39.9069)" />
    <g
       id="g142"
       transform="translate(491.6976,64.2096)" />
    <g
       id="g146"
       transform="translate(532.5859,49.6596)" />
    <g
       id="g150"
       transform="translate(556.6519,55.4669)" />
    <g
       id="g154"
       transform="translate(599.9389,49.6596)" />
    <g
       id="g158"
       transform="translate(624.1312,49.4071)" />
    <g
       id="g162"
       transform="translate(648.213,55.4669)" />
    <g
       id="g166"
       transform="translate(678.3231,64.7305)" />
    <g
       id="g172"
       transform="translate(715.9447,51.8372)" />
    <g
       id="g176"
       transform="translate(730.6526,39.9069)" />
    <g
       id="g180"
       transform="translate(774.0818,50.5119)" />
    <g
       id="g184"
       transform="translate(799.6943,49.123)" />
    <g
       id="g188"
       transform="translate(831.6191,51.3481)" />
    <g
       id="g192"
       transform="translate(859.6145,49.8332)" />
    <g
       id="g196"
       transform="translate(901.513,49.6596)" />
    <g
       id="g200"
       transform="translate(925.7053,49.4071)" />
    <g
       id="g204"
       transform="translate(949.7871,55.4669)" />
    <g
       id="g208"
       transform="translate(973.2216,64.2096)" />
    <g
       id="g212"
       transform="translate(1010.3858,49.4071)" />
    <g
       id="g216"
       transform="translate(1021.2903,59.0334)" />
    <g
       id="g220"
       transform="translate(1058.928,49.4071)" />
    <g
       id="g224"
       transform="translate(1083.0098,55.4669)" />
    <g
       id="g228"
       transform="translate(1095.9027,39.9069)" />
    <g
       id="g232"
       transform="translate(1143.9398,47.9394)" />
    <g
       id="g236"
       transform="translate(1159.5157,39.9069)" />
    <g
       id="g240"
       transform="translate(1199.2047,51.3481)" />
    <g
       id="g244"
       transform="translate(1210.0464,39.9069)" />
    <g
       id="g248"
       transform="translate(1247.1316,55.4669)" />
    <g
       id="g252"
       transform="translate(1268.5308,49.123)" />
    <g
       id="g256"
       transform="translate(1281.8024,59.0334)" />
    <g
       id="g262"
       transform="translate(1337.2095,49.6596)" />
    <g
       id="g266"
       transform="translate(1362.7745,51.3481)" />
    <g
       id="g270"
       transform="translate(1394.92,48.9338)" />
    <g
       id="g274"
       transform="translate(362.5461,246.0535)">
      <path
         d="M 0,0 C 29.031,-13.267 44.364,-44.931 38.526,-74.947 L 7.228,-49.139 c 0.205,0.758 0.3,1.531 0.3,2.352 0,5.223 -4.245,9.468 -9.469,9.468 -5.224,0 -9.469,-4.245 -9.469,-9.468 0,-0.979 0.143,-1.926 0.427,-2.81 v -0.015 l -20.279,-18.417 c -1.72,1.894 -4.214,3.093 -6.975,3.093 -3.156,0 -5.965,-1.546 -7.67,-3.945 l -45.434,33.272 c 0.45,1.066 0.928,2.126 1.437,3.179 C -73.587,1.389 -33.692,15.386 0,0 m -8.253,-46.787 c 0,3.487 2.824,6.312 6.312,6.312 3.488,0 6.312,-2.825 6.312,-6.312 0,-2.368 -1.294,-4.419 -3.219,-5.508 -0.915,-0.505 -1.973,-0.805 -3.093,-0.805 -1.01,0 -1.957,0.237 -2.793,0.647 -1.989,0.994 -3.393,2.998 -3.504,5.35 -0.015,0.11 -0.015,0.205 -0.015,0.316 m -35.129,-23.94 c 1.152,1.594 3.03,2.635 5.145,2.635 1.846,0 3.503,-0.789 4.655,-2.051 1.026,-1.121 1.657,-2.604 1.657,-4.261 0,-1.641 -0.631,-3.125 -1.641,-4.245 l -0.9,-0.821 c -1.041,-0.773 -2.351,-1.247 -3.771,-1.247 -3.488,0 -6.313,2.825 -6.313,6.313 0,1.373 0.442,2.651 1.168,3.677 m -14.092,-52.98 c -31.509,14.677 -46.136,50.03 -36.12,81.939 l 45.951,-33.662 c 0.505,-4.766 4.529,-8.443 9.406,-8.443 5.223,0 9.468,4.23 9.468,9.469 v 0.11 l 21.589,19.616 c 1.499,-0.994 3.298,-1.578 5.239,-1.578 2.099,0 4.056,0.694 5.634,1.862 l 33.138,-27.332 c -0.85,-2.774 -1.87,-5.523 -3.107,-8.225 -16.002,-34.955 -56.291,-50.026 -91.198,-33.756 m -4.482,-13.824 c 41.362,-18.558 90.204,0 108.778,41.315 18.653,41.503 0.158,90.424 -41.314,108.967 -41.457,18.543 -89.636,0.284 -108.542,-40.746 -4.103,-8.885 -6.486,-18.164 -7.275,-27.444 -7.59,-0.11 -15.276,-0.236 -23.072,-0.347 -0.583,1.247 -1.515,1.973 -2.887,2.178 -0.316,0.063 -0.663,0.095 -1.026,0.095 -13.572,0.079 -27.143,0.158 -40.715,0.252 -8.522,0.048 -17.059,0.111 -25.581,0.174 -1.026,-2.036 -2.193,-4.009 -3.488,-5.887 0.174,-0.173 0.348,-0.363 0.506,-0.536 3.156,-3.425 5.791,-7.133 7.921,-11.078 0.316,-0.537 0.647,-1.168 0.947,-1.799 0.71,-1.436 1.389,-2.904 1.989,-4.435 5.902,0.205 11.804,0.426 17.706,0.632 13.635,0.489 27.269,0.978 40.92,1.467 0.284,0.016 0.568,0.032 0.821,0.095 1.42,0.221 2.382,0.962 2.951,2.304 7.858,0.126 15.623,0.237 23.292,0.347 3.235,-27.506 20.279,-52.929 48.069,-65.554"
         style="fill:#8dc63f;fill-opacity:1;fill-rule:nonzero;stroke:none"
         id="path276" />
    </g>
    <path
       d="m 220.754,279.199 h -9.056 v -9.056 h 9.056 z"
       style="fill:#8dc63f;fill-opacity:1;fill-rule:nonzero;stroke:none"
       id="path278" />
    <path
       d="m 231.228,277.837 h 6.549 v 6.549 h -6.549 z"
       style="fill:#8dc63f;fill-opacity:1;fill-rule:nonzero;stroke:none"
       id="path280" />
    <path
       d="m 226.278,288.234 h -5.86 v -5.86 h 5.86 z"
       style="fill:#8dc63f;fill-opacity:1;fill-rule:nonzero;stroke:none"
       id="path282" />
    <path
       d="m 234.226,292.284 h -4.05 v -4.05 h 4.05 z"
       style="fill:#8dc63f;fill-opacity:1;fill-rule:nonzero;stroke:none"
       id="path284" />
    <path
       d="m 227.059,294.444 h -3.317 v -3.316 h 3.317 z"
       style="fill:#8dc63f;fill-opacity:1;fill-rule:nonzero;stroke:none"
       id="path286" />
  </g>
</svg>
